<svg width="668" height="92" viewBox="0 0 668 92" fill="none" xmlns="http://www.w3.org/2000/svg">
<path opacity="0.3" d="M0 20C0 8.95431 8.9543 0 20 0H668V72C668 83.0457 659.046 92 648 92H0V20Z" fill="#F6F6F6"/>
<rect x="310" y="30" width="1" height="32" fill="#F6F6F6"/>
<path d="M374.79 29.5C375.72 29.5 376.525 29.655 377.205 29.965C377.895 30.275 378.425 30.715 378.795 31.285C379.165 31.855 379.35 32.53 379.35 33.31C379.35 34.08 379.165 34.755 378.795 35.335C378.425 35.905 377.895 36.345 377.205 36.655C376.525 36.955 375.72 37.105 374.79 37.105H372.675V40H370.245V29.5H374.79ZM374.655 35.125C375.385 35.125 375.94 34.97 376.32 34.66C376.7 34.34 376.89 33.89 376.89 33.31C376.89 32.72 376.7 32.27 376.32 31.96C375.94 31.64 375.385 31.48 374.655 31.48H372.675V35.125H374.655ZM390.715 29.5V40H388.285V35.695H383.515V40H381.085V29.5H383.515V33.64H388.285V29.5H390.715ZM397.864 40.18C396.364 40.18 395.194 39.765 394.354 38.935C393.524 38.105 393.109 36.92 393.109 35.38V29.5H395.539V35.29C395.539 37.17 396.319 38.11 397.879 38.11C398.639 38.11 399.219 37.885 399.619 37.435C400.019 36.975 400.219 36.26 400.219 35.29V29.5H402.619V35.38C402.619 36.92 402.199 38.105 401.359 38.935C400.529 39.765 399.364 40.18 397.864 40.18ZM401.374 29.5H401.779C402.049 29.5 402.264 29.415 402.424 29.245C402.594 29.065 402.679 28.835 402.679 28.555C402.679 28.205 402.579 27.905 402.379 27.655L403.759 27.145C404.079 27.565 404.239 28.065 404.239 28.645C404.239 29.395 404.014 29.985 403.564 30.415C403.124 30.845 402.509 31.06 401.719 31.06H401.374V29.5ZM414.271 30.79C414.821 31.26 415.251 31.84 415.561 32.53C415.881 33.21 416.041 33.95 416.041 34.75C416.041 35.78 415.791 36.71 415.291 37.54C414.791 38.36 414.106 39.005 413.236 39.475C412.366 39.945 411.386 40.18 410.296 40.18C409.206 40.18 408.221 39.945 407.341 39.475C406.471 39.005 405.786 38.36 405.286 37.54C404.796 36.71 404.551 35.78 404.551 34.75C404.551 33.72 404.801 32.795 405.301 31.975C405.801 31.145 406.496 30.495 407.386 30.025C408.276 29.555 409.281 29.32 410.401 29.32C410.841 29.32 411.391 29.36 412.051 29.44C412.571 29.5 412.936 29.53 413.146 29.53C413.536 29.53 413.836 29.445 414.046 29.275C414.266 29.105 414.376 28.86 414.376 28.54C414.376 28.23 414.276 27.93 414.076 27.64L415.456 27.13C415.776 27.58 415.936 28.08 415.936 28.63C415.936 29.18 415.791 29.64 415.501 30.01C415.211 30.38 414.801 30.64 414.271 30.79ZM410.296 38.11C410.916 38.11 411.476 37.97 411.976 37.69C412.476 37.4 412.866 37 413.146 36.49C413.436 35.98 413.581 35.4 413.581 34.75C413.581 34.1 413.436 33.52 413.146 33.01C412.866 32.5 412.476 32.105 411.976 31.825C411.476 31.535 410.916 31.39 410.296 31.39C409.676 31.39 409.116 31.535 408.616 31.825C408.116 32.105 407.721 32.5 407.431 33.01C407.151 33.52 407.011 34.1 407.011 34.75C407.011 35.4 407.151 35.98 407.431 36.49C407.721 37 408.116 37.4 408.616 37.69C409.116 37.97 409.676 38.11 410.296 38.11ZM427.497 29.5V40H425.502L420.267 33.625V40H417.867V29.5H419.877L425.097 35.875V29.5H427.497ZM437.076 34.585H439.296V38.845C438.726 39.275 438.066 39.605 437.316 39.835C436.566 40.065 435.811 40.18 435.051 40.18C433.961 40.18 432.981 39.95 432.111 39.49C431.241 39.02 430.556 38.375 430.056 37.555C429.566 36.725 429.321 35.79 429.321 34.75C429.321 33.71 429.566 32.78 430.056 31.96C430.556 31.13 431.246 30.485 432.126 30.025C433.006 29.555 433.996 29.32 435.096 29.32C436.016 29.32 436.851 29.475 437.601 29.785C438.351 30.095 438.981 30.545 439.491 31.135L437.931 32.575C437.181 31.785 436.276 31.39 435.216 31.39C434.546 31.39 433.951 31.53 433.431 31.81C432.911 32.09 432.506 32.485 432.216 32.995C431.926 33.505 431.781 34.09 431.781 34.75C431.781 35.4 431.926 35.98 432.216 36.49C432.506 37 432.906 37.4 433.416 37.69C433.936 37.97 434.526 38.11 435.186 38.11C435.886 38.11 436.516 37.96 437.076 37.66V34.585ZM447.977 31.48H444.617V29.5H453.767V31.48H450.407V40H447.977V31.48ZM464.704 29.5V40H462.274V35.695H457.504V40H455.074V29.5H457.504V33.64H462.274V29.5H464.704ZM471.853 40.18C470.353 40.18 469.183 39.765 468.343 38.935C467.513 38.105 467.098 36.92 467.098 35.38V29.5H469.528V35.29C469.528 37.17 470.308 38.11 471.868 38.11C472.628 38.11 473.208 37.885 473.608 37.435C474.008 36.975 474.208 36.26 474.208 35.29V29.5H476.608V35.38C476.608 36.92 476.188 38.105 475.348 38.935C474.518 39.765 473.353 40.18 471.853 40.18ZM475.363 29.5H475.768C476.038 29.5 476.253 29.415 476.413 29.245C476.583 29.065 476.668 28.835 476.668 28.555C476.668 28.205 476.568 27.905 476.368 27.655L477.748 27.145C478.068 27.565 478.228 28.065 478.228 28.645C478.228 29.395 478.003 29.985 477.553 30.415C477.113 30.845 476.498 31.06 475.708 31.06H475.363V29.5ZM472.528 26.485H475.048L472.333 28.645H470.503L472.528 26.485ZM484.225 40.18C483.155 40.18 482.185 39.95 481.315 39.49C480.455 39.02 479.775 38.375 479.275 37.555C478.785 36.725 478.54 35.79 478.54 34.75C478.54 33.71 478.785 32.78 479.275 31.96C479.775 31.13 480.455 30.485 481.315 30.025C482.185 29.555 483.16 29.32 484.24 29.32C485.15 29.32 485.97 29.48 486.7 29.8C487.44 30.12 488.06 30.58 488.56 31.18L487 32.62C486.29 31.8 485.41 31.39 484.36 31.39C483.71 31.39 483.13 31.535 482.62 31.825C482.11 32.105 481.71 32.5 481.42 33.01C481.14 33.52 481 34.1 481 34.75C481 35.4 481.14 35.98 481.42 36.49C481.71 37 482.11 37.4 482.62 37.69C483.13 37.97 483.71 38.11 484.36 38.11C485.41 38.11 486.29 37.695 487 36.865L488.56 38.305C488.06 38.915 487.44 39.38 486.7 39.7C485.96 40.02 485.135 40.18 484.225 40.18ZM496.624 31.48H493.264V29.5H502.414V31.48H499.054V40H496.624V31.48ZM513.352 29.5V40H510.922V35.695H506.152V40H503.722V29.5H506.152V33.64H510.922V29.5H513.352ZM522.751 37.75H517.876L516.946 40H514.456L519.136 29.5H521.536L526.231 40H523.681L522.751 37.75ZM521.986 35.905L520.321 31.885L518.656 35.905H521.986ZM536.95 29.5V40H534.955L529.72 33.625V40H527.32V29.5H529.33L534.55 35.875V29.5H536.95ZM549.064 29.5V40H546.634V35.695H541.864V40H539.434V29.5H541.864V33.64H546.634V29.5H549.064ZM557.972 31.48H554.612V29.5H563.762V31.48H560.402V40H557.972V31.48ZM570.008 40.18C568.918 40.18 567.933 39.945 567.053 39.475C566.183 39.005 565.498 38.36 564.998 37.54C564.508 36.71 564.263 35.78 564.263 34.75C564.263 33.72 564.508 32.795 564.998 31.975C565.498 31.145 566.183 30.495 567.053 30.025C567.933 29.555 568.918 29.32 570.008 29.32C571.098 29.32 572.078 29.555 572.948 30.025C573.818 30.495 574.503 31.145 575.003 31.975C575.503 32.795 575.753 33.72 575.753 34.75C575.753 35.78 575.503 36.71 575.003 37.54C574.503 38.36 573.818 39.005 572.948 39.475C572.078 39.945 571.098 40.18 570.008 40.18ZM570.008 38.11C570.628 38.11 571.188 37.97 571.688 37.69C572.188 37.4 572.578 37 572.858 36.49C573.148 35.98 573.293 35.4 573.293 34.75C573.293 34.1 573.148 33.52 572.858 33.01C572.578 32.5 572.188 32.105 571.688 31.825C571.188 31.535 570.628 31.39 570.008 31.39C569.388 31.39 568.828 31.535 568.328 31.825C567.828 32.105 567.433 32.5 567.143 33.01C566.863 33.52 566.723 34.1 566.723 34.75C566.723 35.4 566.863 35.98 567.143 36.49C567.433 37 567.828 37.4 568.328 37.69C568.828 37.97 569.388 38.11 570.008 38.11ZM584.348 37.75H579.473L578.543 40H576.052L580.733 29.5H583.133L587.828 40H585.278L584.348 37.75ZM583.583 35.905L581.918 31.885L580.253 35.905H583.583ZM582.593 26.485H585.113L582.398 28.645H580.568L582.593 26.485ZM598.547 29.5V40H596.552L591.317 33.625V40H588.917V29.5H590.927L596.147 35.875V29.5H598.547Z" fill="#323232"/>
<path d="M376.587 63.876H375.355V63.15H378.71V63.876H377.478V67H376.587V63.876ZM379.299 63.15H380.19V67H379.299V63.15ZM384.195 66.285V67H381.214V63.15H384.123V63.865H382.099V64.701H383.887V65.394H382.099V66.285H384.195ZM383.144 62.8365L382.671 62.523L382.198 62.8365H381.566L382.297 62.2095H383.045L383.777 62.8365H383.144ZM382.798 61.643H383.672L384.277 62.3085H383.661L382.798 61.643ZM388.545 63.15V67H387.813L385.894 64.6625V67H385.014V63.15H385.751L387.665 65.4875V63.15H388.545ZM394.737 67L394.731 64.69L393.598 66.593H393.197L392.069 64.7395V67H391.233V63.15H391.97L393.411 65.5425L394.83 63.15H395.562L395.573 67H394.737ZM399.132 66.175H397.344L397.003 67H396.09L397.806 63.15H398.686L400.408 67H399.473L399.132 66.175ZM398.851 65.4985L398.241 64.0245L397.63 65.4985H398.851ZM398.246 68.155C398.136 68.155 398.045 68.1202 397.971 68.0505C397.902 67.9845 397.867 67.8965 397.867 67.7865C397.867 67.6765 397.902 67.5848 397.971 67.5115C398.045 67.4382 398.136 67.4015 398.246 67.4015C398.353 67.4015 398.442 67.4382 398.516 67.5115C398.589 67.5848 398.626 67.6765 398.626 67.7865C398.626 67.8965 398.589 67.9845 398.516 68.0505C398.446 68.1202 398.356 68.155 398.246 68.155ZM398.246 62.8805C397.957 62.8805 397.718 62.8053 397.531 62.655C397.344 62.5047 397.245 62.3012 397.234 62.0445H397.773C397.777 62.1618 397.823 62.2572 397.911 62.3305C398.002 62.4002 398.114 62.435 398.246 62.435C398.378 62.435 398.488 62.4002 398.576 62.3305C398.668 62.2572 398.716 62.1618 398.719 62.0445H399.258C399.247 62.3012 399.148 62.5047 398.961 62.655C398.774 62.8053 398.536 62.8805 398.246 62.8805ZM401.521 63.876H400.289V63.15H403.644V63.876H402.412V67H401.521V63.876Z" fill="#333F48"/>
<path d="M393.177 50.6815C393.114 50.7013 393.045 50.6952 392.986 50.6644C392.928 50.6337 392.883 50.5809 392.864 50.5176L392.714 50.0405L389.648 51.0001H393.801L393.654 50.5321L393.177 50.6815Z" fill="#333F48"/>
<path d="M382.5 55.8809V53C382.5 52.9337 382.526 52.8701 382.573 52.8232C382.62 52.7763 382.684 52.75 382.75 52.75H383.25V52.25C383.25 52.1837 383.276 52.1201 383.323 52.0732C383.37 52.0263 383.434 52 383.5 52H394.5C394.566 52 394.63 52.0263 394.677 52.0732C394.724 52.1201 394.75 52.1837 394.75 52.25V52.75H395.25C395.316 52.75 395.38 52.7763 395.427 52.8232C395.474 52.8701 395.5 52.9337 395.5 53V56C395.5 56.0663 395.474 56.1299 395.427 56.1768C395.38 56.2237 395.316 56.25 395.25 56.25H394.75V56.75C394.75 56.8163 394.724 56.8799 394.677 56.9268C394.63 56.9737 394.566 57 394.5 57H386.177L386 57.1278V57.5H396V51.5H382V56.4217C382.142 56.22 382.31 56.0381 382.5 55.8809Z" fill="#333F48"/>
<path d="M386.301 51.0002H387.975L392.805 49.4888C392.836 49.479 392.869 49.4755 392.902 49.4784C392.934 49.4813 392.966 49.4907 392.995 49.5059C393.024 49.5211 393.05 49.5419 393.071 49.5671C393.092 49.5923 393.108 49.6214 393.118 49.6527L393.267 50.1298L393.745 49.9804C393.808 49.9606 393.876 49.9667 393.935 49.9975C393.994 50.0282 394.038 50.081 394.058 50.1443L394.326 51.0002H394.85L394.087 48.5635L386.301 51.0002Z" fill="#333F48"/>
<path d="M387.913 55.7453L386.869 56.5H394.25V56C394.25 55.9337 394.276 55.8701 394.323 55.8232C394.37 55.7763 394.434 55.75 394.5 55.75H395V53.25H394.5C394.434 53.25 394.37 53.2237 394.323 53.1768C394.276 53.1299 394.25 53.0663 394.25 53V52.5H383.75V53C383.75 53.0663 383.724 53.1299 383.677 53.1768C383.63 53.2237 383.566 53.25 383.5 53.25H383V55.5512C383.366 55.3637 383.769 55.261 384.18 55.2509L386.51 53.6762C386.698 53.5495 386.917 53.4762 387.143 53.464C387.369 53.4517 387.595 53.501 387.795 53.6066C387.974 53.365 388.221 53.1827 388.505 53.0834C388.789 52.9841 389.096 52.9723 389.386 53.0495C389.677 53.1267 389.938 53.2895 390.135 53.5166C390.331 53.7438 390.456 54.0248 390.491 54.3234C390.526 54.6219 390.471 54.9242 390.333 55.191C390.194 55.4578 389.979 55.6768 389.714 55.8197C389.45 55.9626 389.148 56.0227 388.849 55.9923C388.55 55.9619 388.267 55.8423 388.037 55.6491C387.998 55.6837 387.956 55.7158 387.913 55.7453Z" fill="#333F48"/>
<path d="M390.75 58.0002H385.75C385.684 58.0002 385.62 57.9738 385.573 57.9269C385.526 57.8801 385.5 57.8165 385.5 57.7502V57.0002C385.5 56.9606 385.509 56.9216 385.527 56.8864C385.545 56.8512 385.571 56.8207 385.604 56.7975L387.623 55.338C387.626 55.3365 387.628 55.3349 387.63 55.3335C387.713 55.2791 387.785 55.2086 387.841 55.1263C387.896 55.0439 387.935 54.9513 387.955 54.8538C387.975 54.7563 387.975 54.6558 387.955 54.5583C387.936 54.4607 387.897 54.3681 387.841 54.2856C387.785 54.2032 387.714 54.1327 387.631 54.0782C387.547 54.0237 387.454 53.9863 387.356 53.9681C387.259 53.95 387.158 53.9515 387.061 53.9726C386.964 53.9936 386.872 54.0338 386.79 54.0908L384.39 55.7125C384.335 55.7496 384.268 55.7634 384.203 55.7508C383.614 55.7639 383.055 56.0065 382.643 56.4268C382.232 56.8472 382.001 57.4119 382 58.0002V59.5002H387.75C387.873 59.5 387.994 59.4698 388.103 59.4119L390.75 58.0002Z" fill="#333F48"/>
<path d="M389 53.5C388.839 53.5 388.681 53.5387 388.538 53.6128C388.396 53.6869 388.273 53.7943 388.181 53.9258C388.204 53.9536 388.225 53.9821 388.245 54.0121C388.367 54.1925 388.44 54.4014 388.456 54.6184C388.472 54.8353 388.431 55.0528 388.338 55.2492C388.459 55.3564 388.604 55.4326 388.762 55.4712C388.919 55.5098 389.083 55.5096 389.24 55.4707C389.397 55.4319 389.543 55.3554 389.664 55.248C389.785 55.1406 389.878 55.0053 389.935 54.854C389.993 54.7026 390.012 54.5395 389.993 54.3789C389.973 54.2182 389.915 54.0647 389.823 53.9315C389.731 53.7983 389.608 53.6895 389.464 53.6143C389.321 53.5392 389.162 53.4999 389 53.5Z" fill="#333F48"/>
<path d="M428.568 52.0007H431.411C432.458 51.9838 433.607 52.2561 433.607 53.5242C433.607 54.0689 433.283 54.5114 432.807 54.7497C433.453 54.9368 433.854 55.4987 433.854 56.188C433.854 57.6348 432.79 58.0772 431.487 58.0772H428.568V52.0007ZM430.151 54.3923H431.377C431.649 54.3923 432.024 54.2475 432.024 53.8136C432.024 53.371 431.709 53.2264 431.377 53.2264H430.151V54.3923ZM430.151 56.8092H431.419C431.921 56.8092 432.27 56.6306 432.27 56.1284C432.27 55.5922 431.896 55.4135 431.419 55.4135H430.151V56.8092Z" fill="#333F48"/>
<path d="M436.362 52.001H437.971L440.243 58.0775H438.592L438.217 56.9882H436.098L435.715 58.0775H434.09L436.362 52.001ZM436.464 55.8139H437.843L437.171 53.6863H437.154L436.464 55.8139Z" fill="#333F48"/>
<path d="M440.688 52.001H442.313L444.424 55.7457H444.441V52.001H445.93V58.0775H444.305L442.194 54.2905H442.177V58.0775H440.688V52.001Z" fill="#333F48"/>
<path d="M447.01 52.001H448.593V54.333L450.593 52.001H452.559L450.312 54.3925L452.84 58.0776H450.874L449.24 55.5246L448.593 56.2054V58.0777H447.01V52.0011L447.01 52.001Z" fill="#333F48"/>
<path d="M424.587 60.2825H423.338V63.5293H422.248V60.2825H421V59.3447H424.587V60.2825Z" fill="#333F48"/>
<path d="M425.066 59.3438H427.2C427.938 59.3438 428.665 59.6779 428.665 60.5217C428.665 60.973 428.448 61.4008 428.009 61.5709V61.5825C428.454 61.6881 428.583 62.1861 428.618 62.5847C428.63 62.7605 428.647 63.3758 428.794 63.5284H427.715C427.622 63.3878 427.604 62.9775 427.592 62.8603C427.563 62.4383 427.493 62.0047 426.983 62.0047H426.157V63.5284H425.066V59.3438ZM426.157 61.1605H427.071C427.399 61.1605 427.575 60.9847 427.575 60.6683C427.575 60.3578 427.329 60.2169 427.024 60.2169H426.157C426.157 60.2169 426.157 61.1605 426.157 61.1605Z" fill="#333F48"/>
<path d="M430.436 59.3438H431.544L433.108 63.5283H431.971L431.714 62.778H430.254L429.991 63.5283H428.871L430.436 59.3438ZM430.506 61.9693H431.456L430.993 60.504H430.981L430.506 61.9693Z" fill="#333F48"/>
<path d="M433.414 59.3438H434.533L435.987 61.9225H435.999V59.3438H437.024V63.5283H435.905L434.451 60.9204H434.44V63.5283H433.414V59.3438Z" fill="#333F48"/>
<path d="M438.617 62.1219C438.641 62.6142 438.946 62.7723 439.409 62.7723C439.737 62.7723 440.077 62.6552 440.077 62.3446C440.077 61.9754 439.479 61.905 438.875 61.7349C438.278 61.565 437.65 61.2955 437.65 60.5276C437.65 59.6134 438.571 59.2559 439.356 59.2559C440.188 59.2559 441.026 59.6601 441.032 60.6038H439.942C439.96 60.2228 439.602 60.0998 439.268 60.0998C439.034 60.0998 438.741 60.1817 438.741 60.4573C438.741 60.7796 439.344 60.8382 439.954 61.0082C440.558 61.1782 441.167 61.4594 441.167 62.2154C441.167 63.2763 440.264 63.6163 439.344 63.6163C438.383 63.6163 437.533 63.1942 437.527 62.1218H438.617V62.1219Z" fill="#333F48"/>
<path d="M441.678 59.3438H444.761V60.2169H442.768V61.0727H444.491V61.9164H442.768V63.5283H441.678V59.3438Z" fill="#333F48"/>
<path d="M445.258 59.3438H448.593V60.2169H446.348V60.9496H448.399V61.7935H446.348V62.5906H448.651V63.5282H445.258L445.258 59.3438Z" fill="#333F48"/>
<path d="M449.273 59.3438H451.407C452.145 59.3438 452.872 59.6779 452.872 60.5217C452.872 60.973 452.655 61.4008 452.215 61.5709V61.5825C452.661 61.6881 452.79 62.1861 452.825 62.5847C452.837 62.7605 452.854 63.3758 453.001 63.5284H451.922C451.828 63.3878 451.811 62.9775 451.799 62.8603C451.77 62.4383 451.7 62.0047 451.19 62.0047H450.364V63.5284H449.273V59.3438ZM450.364 61.1605H451.278C451.606 61.1605 451.782 60.9847 451.782 60.6683C451.782 60.3578 451.536 60.2169 451.231 60.2169H450.364V61.1605Z" fill="#333F48"/>
<path d="M427.598 52H421V53.3212H427.598V52Z" fill="#D92B2B"/>
<path d="M427.598 56.7563H421V58.0775H427.598V56.7563Z" fill="#D92B2B"/>
<path d="M427.598 54.3779H421V55.6992H427.598V54.3779Z" fill="#D92B2B"/>
<path fill-rule="evenodd" clip-rule="evenodd" d="M487.837 54.145C488.524 53.9886 489.243 53.9628 489.943 54.048C490.395 54.1038 490.839 54.2125 491.266 54.358C491.135 54.9275 491.004 55.497 490.872 56.0663C490.332 55.8362 489.743 55.7027 489.149 55.6864C488.85 55.68 488.545 55.6973 488.263 55.7949C488.093 55.8541 487.93 55.9463 487.82 56.0834C487.728 56.1971 487.681 56.3471 487.717 56.4878C487.748 56.6146 487.839 56.7207 487.94 56.8067C488.122 56.9565 488.335 57.0669 488.547 57.175C489.022 57.4119 489.514 57.6303 489.94 57.9417C490.304 58.2026 490.614 58.5474 490.753 58.9596C490.867 59.2855 490.872 59.636 490.819 59.9727C490.756 60.3741 490.585 60.7612 490.319 61.0836C490.007 61.4669 489.574 61.7541 489.103 61.9484C488.56 62.1739 487.967 62.2826 487.375 62.3189C486.708 62.3571 486.037 62.2993 485.383 62.1738C485.063 62.1085 484.744 62.0293 484.445 61.9034C484.581 61.3152 484.716 60.727 484.852 60.1388C485.127 60.2583 485.403 60.3761 485.694 60.4599C486.027 60.558 486.373 60.6157 486.721 60.637C487.039 60.6542 487.364 60.6597 487.676 60.5879C487.922 60.5322 488.17 60.4361 488.34 60.2554C488.504 60.084 488.55 59.8224 488.446 59.6135C488.362 59.4501 488.208 59.3311 488.051 59.2289C487.815 59.0771 487.556 58.9576 487.299 58.8393C486.79 58.6049 486.289 58.3275 485.906 57.9309C485.623 57.639 485.422 57.2697 485.382 56.8753C485.341 56.4565 485.425 56.0272 485.623 55.649C485.772 55.3636 485.986 55.1096 486.24 54.8982C486.69 54.5225 487.254 54.2813 487.837 54.145Z" fill="#243881"/>
<path fill-rule="evenodd" clip-rule="evenodd" d="M471.052 54.1493C472.314 54.1484 473.574 54.1491 474.835 54.1488C474.944 54.1483 475.053 54.1574 475.158 54.1852C475.381 54.2413 475.58 54.3712 475.714 54.5459C475.815 54.6752 475.88 54.8265 475.912 54.9828C476.118 55.9992 476.324 57.0156 476.53 58.032C476.639 58.565 476.743 59.0989 476.856 59.6314C477.635 57.8046 478.414 55.9771 479.191 54.1493C479.978 54.1478 480.764 54.1487 481.55 54.1488C480.337 56.8352 479.125 59.5219 477.911 62.2082C477.121 62.2082 476.331 62.2064 475.541 62.2091C474.949 60.0956 474.363 57.9808 473.774 55.867C473.721 55.6854 473.679 55.4948 473.565 55.3362C473.446 55.1726 473.25 55.0818 473.065 54.9966C472.611 54.7957 472.129 54.6531 471.645 54.529C471.431 54.4756 471.216 54.4267 471 54.3825C471.017 54.3046 471.036 54.2273 471.052 54.1493Z" fill="#192164"/>
<path fill-rule="evenodd" clip-rule="evenodd" d="M482.402 54.6328C482.44 54.4702 482.475 54.3068 482.515 54.1445C483.263 54.1469 484.011 54.1444 484.759 54.1457C484.139 56.8319 483.521 59.5184 482.902 62.2048C482.153 62.2054 481.405 62.2048 480.656 62.205C481.238 59.681 481.82 57.1569 482.402 54.6328Z" fill="#28327B"/>
<path fill-rule="evenodd" clip-rule="evenodd" d="M494.107 54.7293C494.256 54.3911 494.628 54.1512 495.023 54.1463C495.674 54.143 496.325 54.1454 496.976 54.145C497.581 56.8317 498.185 59.5186 498.789 62.2055C498.097 62.206 497.405 62.2054 496.712 62.2056C496.62 61.8047 496.531 61.4032 496.44 61.0021C495.48 61.0016 494.52 61.0022 493.561 61.0016C493.404 61.4023 493.247 61.8031 493.092 62.2045C492.306 62.2064 491.52 62.2054 490.734 62.2049C491.858 59.7129 492.982 57.2208 494.107 54.7293ZM494.207 59.348C494.827 59.3485 495.448 59.3482 496.068 59.3482C495.841 58.3408 495.615 57.3335 495.389 56.3262C494.993 57.3327 494.601 58.3408 494.207 59.348Z" fill="#344490"/>
<g opacity="0.01">
<rect x="521" y="50" width="24.1937" height="16" fill="white"/>
</g>
<rect x="529.906" y="52.7871" width="6.38125" height="10.425" fill="#F26122"/>
<path d="M530.594 57.9985C530.583 55.9695 531.505 54.0479 533.094 52.786C530.375 50.6481 526.47 50.9586 524.123 53.4992C521.777 56.0398 521.777 59.9573 524.123 62.4979C526.47 65.0385 530.375 65.349 533.094 63.211C531.505 61.9491 530.583 60.0276 530.594 57.9985Z" fill="#EA1D25"/>
<path fill-rule="evenodd" clip-rule="evenodd" d="M543.182 61.8948V62.1073H543.144V61.8948H543.057V61.8511H543.275V61.8948H543.182ZM543.606 61.8511V62.1073H543.562V61.9136L543.494 62.0823H543.444L543.369 61.9136V62.1073H543.325V61.8511H543.387L543.469 62.0323L543.544 61.8511H543.606Z" fill="#F69E1E"/>
<path d="M543.819 57.9986C543.817 60.5357 542.368 62.8495 540.086 63.9585C537.804 65.0675 535.09 64.7774 533.094 63.2111C535.969 60.9473 536.467 56.7826 534.206 53.9049C533.882 53.4882 533.509 53.1125 533.094 52.7861C535.09 51.2199 537.804 50.9297 540.086 52.0387C542.368 53.1477 543.817 55.4615 543.819 57.9986Z" fill="#F69E1E"/>
<path fill-rule="evenodd" clip-rule="evenodd" d="M586.455 59.9534H588.031C588.076 59.9534 588.182 59.9384 588.227 59.9384C588.527 59.8784 588.782 59.6081 588.782 59.2328C588.782 58.8725 588.527 58.6023 588.227 58.5272C588.182 58.5122 588.091 58.5122 588.031 58.5122H586.455V59.9534Z" fill="url(#paint0_linear_7152_59888)"/>
<path fill-rule="evenodd" clip-rule="evenodd" d="M587.851 50C586.35 50 585.119 51.216 585.119 52.7323V55.5697H588.977C589.067 55.5697 589.172 55.5697 589.247 55.5847C590.118 55.6298 590.763 56.0802 590.763 56.8608C590.763 57.4763 590.328 58.0018 589.517 58.1069V58.1369C590.403 58.197 591.079 58.6924 591.079 59.458C591.079 60.2837 590.328 60.8242 589.337 60.8242H585.104V66.3789H589.112C590.613 66.3789 591.844 65.1629 591.844 63.6466V50H587.851Z" fill="url(#paint1_linear_7152_59888)"/>
<path fill-rule="evenodd" clip-rule="evenodd" d="M588.587 57.0395C588.587 56.6792 588.332 56.439 588.031 56.3939C588.001 56.3939 587.926 56.3789 587.881 56.3789H586.455V57.7H587.881C587.926 57.7 588.016 57.7 588.031 57.685C588.332 57.64 588.587 57.3998 588.587 57.0395Z" fill="url(#paint2_linear_7152_59888)"/>
<path fill-rule="evenodd" clip-rule="evenodd" d="M572.747 50C571.246 50 570.015 51.216 570.015 52.7323V59.473C570.781 59.8484 571.576 60.0886 572.372 60.0886C573.318 60.0886 573.828 59.5181 573.828 58.7374V55.5547H576.17V58.7224C576.17 59.9534 575.405 60.9593 572.807 60.9593C571.231 60.9593 570 60.614 570 60.614V66.3639H574.008C575.51 66.3639 576.741 65.1479 576.741 63.6316V50H572.747Z" fill="url(#paint3_linear_7152_59888)"/>
<path fill-rule="evenodd" clip-rule="evenodd" d="M580.299 50C578.797 50 577.566 51.216 577.566 52.7323V56.3054C578.257 55.7199 579.458 55.3445 581.395 55.4346C582.431 55.4797 583.541 55.7649 583.541 55.7649V56.9209C582.986 56.6356 582.325 56.3804 581.47 56.3204C579.998 56.2153 579.113 56.9359 579.113 58.197C579.113 59.473 579.998 60.1937 581.47 60.0736C582.325 60.0135 582.986 59.7433 583.541 59.473V60.629C583.541 60.629 582.446 60.9143 581.395 60.9593C579.458 61.0494 578.257 60.6741 577.566 60.0886V66.3939H581.575C583.076 66.3939 584.307 65.1779 584.307 63.6616V50H580.299Z" fill="url(#paint4_linear_7152_59888)"/>
<path d="M78.8 40L78.785 33.7L75.695 38.89H74.6L71.525 33.835V40H69.245V29.5H71.255L75.185 36.025L79.055 29.5H81.05L81.08 40H78.8ZM83.5712 29.5H86.0012V40H83.5712V29.5ZM96.623 38.05V40H88.493V29.5H96.428V31.45H90.908V33.73H95.783V35.62H90.908V38.05H96.623ZM93.758 28.645L92.468 27.79L91.178 28.645H89.453L91.448 26.935H93.488L95.483 28.645H93.758ZM93.578 26.41C93.308 26.41 93.068 26.37 92.858 26.29C92.648 26.2 92.418 26.075 92.168 25.915C92.048 25.845 91.928 25.78 91.808 25.72C91.698 25.66 91.598 25.63 91.508 25.63C91.308 25.63 91.153 25.69 91.043 25.81C90.933 25.93 90.868 26.1 90.848 26.32H89.648C89.658 25.72 89.813 25.26 90.113 24.94C90.423 24.61 90.848 24.445 91.388 24.445C91.648 24.445 91.868 24.485 92.048 24.565C92.238 24.645 92.473 24.765 92.753 24.925C92.913 25.025 93.043 25.1 93.143 25.15C93.253 25.2 93.358 25.225 93.458 25.225C93.658 25.225 93.813 25.165 93.923 25.045C94.033 24.915 94.098 24.75 94.118 24.55H95.288C95.278 25.13 95.123 25.585 94.823 25.915C94.523 26.245 94.108 26.41 93.578 26.41ZM108.187 29.5V40H106.192L100.957 33.625V40H98.5565V29.5H100.567L105.787 35.875V29.5H108.187ZM119.464 29.5C120.394 29.5 121.199 29.655 121.879 29.965C122.569 30.275 123.099 30.715 123.469 31.285C123.839 31.855 124.024 32.53 124.024 33.31C124.024 34.08 123.839 34.755 123.469 35.335C123.099 35.905 122.569 36.345 121.879 36.655C121.199 36.955 120.394 37.105 119.464 37.105H117.349V40H114.919V29.5H119.464ZM119.329 35.125C120.059 35.125 120.614 34.97 120.994 34.66C121.374 34.34 121.564 33.89 121.564 33.31C121.564 32.72 121.374 32.27 120.994 31.96C120.614 31.64 120.059 31.48 119.329 31.48H117.349V35.125H119.329ZM135.389 29.5V40H132.959V35.695H128.189V40H125.759V29.5H128.189V33.64H132.959V29.5H135.389ZM137.873 29.5H140.303V40H137.873V29.5ZM139.748 26.485H142.268L139.553 28.645H137.723L139.748 26.485ZM157.138 29.5L152.593 40H150.193L145.663 29.5H148.288L151.483 37L154.723 29.5H157.138ZM164.578 37.75H159.703L158.773 40H156.283L160.963 29.5H163.363L168.058 40H165.508L164.578 37.75ZM163.813 35.905L162.148 31.885L160.483 35.905H163.813ZM162.163 43.15C161.863 43.15 161.613 43.055 161.413 42.865C161.223 42.685 161.128 42.445 161.128 42.145C161.128 41.845 161.223 41.595 161.413 41.395C161.613 41.195 161.863 41.095 162.163 41.095C162.453 41.095 162.698 41.195 162.898 41.395C163.098 41.595 163.198 41.845 163.198 42.145C163.198 42.445 163.098 42.685 162.898 42.865C162.708 43.055 162.463 43.15 162.163 43.15ZM163.468 28.645L162.163 27.505L160.858 28.645H159.148L161.128 26.485H163.198L165.178 28.645H163.468ZM178.777 29.5V40H176.782L171.547 33.625V40H169.147V29.5H171.157L176.377 35.875V29.5H178.777ZM190.535 40.18C189.465 40.18 188.495 39.95 187.625 39.49C186.765 39.02 186.085 38.375 185.585 37.555C185.095 36.725 184.85 35.79 184.85 34.75C184.85 33.71 185.095 32.78 185.585 31.96C186.085 31.13 186.765 30.485 187.625 30.025C188.495 29.555 189.47 29.32 190.55 29.32C191.46 29.32 192.28 29.48 193.01 29.8C193.75 30.12 194.37 30.58 194.87 31.18L193.31 32.62C192.6 31.8 191.72 31.39 190.67 31.39C190.02 31.39 189.44 31.535 188.93 31.825C188.42 32.105 188.02 32.5 187.73 33.01C187.45 33.52 187.31 34.1 187.31 34.75C187.31 35.4 187.45 35.98 187.73 36.49C188.02 37 188.42 37.4 188.93 37.69C189.44 37.97 190.02 38.11 190.67 38.11C191.72 38.11 192.6 37.695 193.31 36.865L194.87 38.305C194.37 38.915 193.75 39.38 193.01 39.7C192.27 40.02 191.445 40.18 190.535 40.18ZM206.141 29.5V40H203.711V35.695H198.941V40H196.511V29.5H198.941V33.64H203.711V29.5H206.141ZM213.29 40.18C211.79 40.18 210.62 39.765 209.78 38.935C208.95 38.105 208.535 36.92 208.535 35.38V29.5H210.965V35.29C210.965 37.17 211.745 38.11 213.305 38.11C214.065 38.11 214.645 37.885 215.045 37.435C215.445 36.975 215.645 36.26 215.645 35.29V29.5H218.045V35.38C218.045 36.92 217.625 38.105 216.785 38.935C215.955 39.765 214.79 40.18 213.29 40.18ZM225.34 36.28V40H222.91V36.25L218.845 29.5H221.425L224.23 34.165L227.035 29.5H229.42L225.34 36.28ZM238.464 38.05V40H230.334V29.5H238.269V31.45H232.749V33.73H237.624V35.62H232.749V38.05H238.464ZM235.599 28.645L234.309 27.79L233.019 28.645H231.294L233.289 26.935H235.329L237.324 28.645H235.599ZM236.409 26.935C236.779 26.755 236.964 26.545 236.964 26.305C236.964 26.175 236.914 26.07 236.814 25.99C236.724 25.91 236.604 25.87 236.454 25.87C236.244 25.87 236.024 25.93 235.794 26.05L235.404 25.33C235.744 25.11 236.159 25 236.649 25C237.069 25 237.404 25.11 237.654 25.33C237.904 25.54 238.029 25.825 238.029 26.185C238.029 26.475 237.929 26.735 237.729 26.965C237.539 27.195 237.289 27.37 236.979 27.49L236.409 26.935ZM250.027 29.5V40H248.032L242.797 33.625V40H240.397V29.5H242.407L247.627 35.875V29.5H250.027Z" fill="#63B1BC"/>
<path d="M173.492 62.588H171.62V65H168.146V62.588H161.486V60.266L167.138 52.4H170.828L165.698 59.762H168.254V57.62H171.62V59.762H173.492V62.588ZM178.788 52.148C180.6 52.148 182.028 52.682 183.072 53.75C184.116 54.818 184.638 56.354 184.638 58.358C184.638 59.798 184.356 61.04 183.792 62.084C183.24 63.116 182.454 63.902 181.434 64.442C180.426 64.982 179.256 65.252 177.924 65.252C177.216 65.252 176.538 65.168 175.89 65C175.242 64.844 174.69 64.622 174.234 64.334L175.53 61.778C176.142 62.21 176.916 62.426 177.852 62.426C178.752 62.426 179.478 62.18 180.03 61.688C180.594 61.184 180.924 60.458 181.02 59.51C180.3 60.122 179.358 60.428 178.194 60.428C177.402 60.428 176.676 60.266 176.016 59.942C175.356 59.606 174.828 59.138 174.432 58.538C174.048 57.926 173.856 57.23 173.856 56.45C173.856 55.598 174.072 54.848 174.504 54.2C174.948 53.54 175.542 53.036 176.286 52.688C177.042 52.328 177.876 52.148 178.788 52.148ZM179.04 57.872C179.556 57.872 179.976 57.728 180.3 57.44C180.624 57.14 180.786 56.75 180.786 56.27C180.786 55.802 180.624 55.424 180.3 55.136C179.988 54.836 179.562 54.686 179.022 54.686C178.518 54.686 178.104 54.83 177.78 55.118C177.468 55.406 177.312 55.796 177.312 56.288C177.312 56.768 177.468 57.152 177.78 57.44C178.104 57.728 178.524 57.872 179.04 57.872ZM190.478 52.148C192.29 52.148 193.718 52.682 194.762 53.75C195.806 54.818 196.328 56.354 196.328 58.358C196.328 59.798 196.046 61.04 195.482 62.084C194.93 63.116 194.144 63.902 193.124 64.442C192.116 64.982 190.946 65.252 189.614 65.252C188.906 65.252 188.228 65.168 187.58 65C186.932 64.844 186.38 64.622 185.924 64.334L187.22 61.778C187.832 62.21 188.606 62.426 189.542 62.426C190.442 62.426 191.168 62.18 191.72 61.688C192.284 61.184 192.614 60.458 192.71 59.51C191.99 60.122 191.048 60.428 189.884 60.428C189.092 60.428 188.366 60.266 187.706 59.942C187.046 59.606 186.518 59.138 186.122 58.538C185.738 57.926 185.546 57.23 185.546 56.45C185.546 55.598 185.762 54.848 186.194 54.2C186.638 53.54 187.232 53.036 187.976 52.688C188.732 52.328 189.566 52.148 190.478 52.148ZM190.73 57.872C191.246 57.872 191.666 57.728 191.99 57.44C192.314 57.14 192.476 56.75 192.476 56.27C192.476 55.802 192.314 55.424 191.99 55.136C191.678 54.836 191.252 54.686 190.712 54.686C190.208 54.686 189.794 54.83 189.47 55.118C189.158 55.406 189.002 55.796 189.002 56.288C189.002 56.768 189.158 57.152 189.47 57.44C189.794 57.728 190.214 57.872 190.73 57.872ZM199.239 65.162C198.663 65.162 198.177 64.97 197.781 64.586C197.385 64.202 197.187 63.716 197.187 63.128C197.187 62.528 197.379 62.042 197.763 61.67C198.159 61.298 198.651 61.112 199.239 61.112C199.839 61.112 200.331 61.298 200.715 61.67C201.099 62.042 201.291 62.528 201.291 63.128C201.291 63.716 201.093 64.202 200.697 64.586C200.313 64.97 199.827 65.162 199.239 65.162ZM207.727 65.252C206.647 65.252 205.687 64.994 204.847 64.478C204.007 63.962 203.347 63.212 202.867 62.228C202.399 61.232 202.165 60.056 202.165 58.7C202.165 57.344 202.399 56.174 202.867 55.19C203.347 54.194 204.007 53.438 204.847 52.922C205.687 52.406 206.647 52.148 207.727 52.148C208.795 52.148 209.749 52.406 210.589 52.922C211.429 53.438 212.083 54.194 212.551 55.19C213.031 56.174 213.271 57.344 213.271 58.7C213.271 60.056 213.031 61.232 212.551 62.228C212.083 63.212 211.429 63.962 210.589 64.478C209.749 64.994 208.795 65.252 207.727 65.252ZM207.727 62.336C208.327 62.336 208.801 62.048 209.149 61.472C209.509 60.884 209.689 59.96 209.689 58.7C209.689 57.44 209.509 56.522 209.149 55.946C208.801 55.358 208.327 55.064 207.727 55.064C207.115 55.064 206.629 55.358 206.269 55.946C205.921 56.522 205.747 57.44 205.747 58.7C205.747 59.96 205.921 60.884 206.269 61.472C206.629 62.048 207.115 62.336 207.727 62.336ZM220.049 65.252C218.969 65.252 218.009 64.994 217.169 64.478C216.329 63.962 215.669 63.212 215.189 62.228C214.721 61.232 214.487 60.056 214.487 58.7C214.487 57.344 214.721 56.174 215.189 55.19C215.669 54.194 216.329 53.438 217.169 52.922C218.009 52.406 218.969 52.148 220.049 52.148C221.117 52.148 222.071 52.406 222.911 52.922C223.751 53.438 224.405 54.194 224.873 55.19C225.353 56.174 225.593 57.344 225.593 58.7C225.593 60.056 225.353 61.232 224.873 62.228C224.405 63.212 223.751 63.962 222.911 64.478C222.071 64.994 221.117 65.252 220.049 65.252ZM220.049 62.336C220.649 62.336 221.123 62.048 221.471 61.472C221.831 60.884 222.011 59.96 222.011 58.7C222.011 57.44 221.831 56.522 221.471 55.946C221.123 55.358 220.649 55.064 220.049 55.064C219.437 55.064 218.951 55.358 218.591 55.946C218.243 56.522 218.069 57.44 218.069 58.7C218.069 59.96 218.243 60.884 218.591 61.472C218.951 62.048 219.437 62.336 220.049 62.336ZM232.371 65.252C231.291 65.252 230.331 64.994 229.491 64.478C228.651 63.962 227.991 63.212 227.511 62.228C227.043 61.232 226.809 60.056 226.809 58.7C226.809 57.344 227.043 56.174 227.511 55.19C227.991 54.194 228.651 53.438 229.491 52.922C230.331 52.406 231.291 52.148 232.371 52.148C233.439 52.148 234.393 52.406 235.233 52.922C236.073 53.438 236.727 54.194 237.195 55.19C237.675 56.174 237.915 57.344 237.915 58.7C237.915 60.056 237.675 61.232 237.195 62.228C236.727 63.212 236.073 63.962 235.233 64.478C234.393 64.994 233.439 65.252 232.371 65.252ZM232.371 62.336C232.971 62.336 233.445 62.048 233.793 61.472C234.153 60.884 234.333 59.96 234.333 58.7C234.333 57.44 234.153 56.522 233.793 55.946C233.445 55.358 232.971 55.064 232.371 55.064C231.759 55.064 231.273 55.358 230.913 55.946C230.565 56.522 230.391 57.44 230.391 58.7C230.391 59.96 230.565 60.884 230.913 61.472C231.273 62.048 231.759 62.336 232.371 62.336Z" fill="#333F48"/>
<path d="M244.43 65.1758C243.305 65.1758 242.42 64.7539 241.775 63.9102C241.131 63.0664 240.809 61.8887 240.809 60.377C240.809 58.7246 241.099 57.5059 241.679 56.7207C242.259 55.9297 243.205 55.5342 244.518 55.5342C245.15 55.5342 245.713 55.6572 246.205 55.9033C246.703 56.1494 247.107 56.5068 247.418 56.9756H247.506C247.371 56.208 247.304 55.5283 247.304 54.9365V54.4883H244.535V52.7393H247.304V51.3242H249.993V52.7393H251.355V54.4883H249.993V65H247.813L247.251 63.7256H247.146C246.536 64.6924 245.631 65.1758 244.43 65.1758ZM245.563 63.04C246.208 63.04 246.683 62.8613 246.987 62.5039C247.298 62.1406 247.465 61.5195 247.488 60.6406V60.3945C247.488 59.3633 247.339 58.6602 247.04 58.2852C246.747 57.9043 246.211 57.7139 245.432 57.7139C244.781 57.7139 244.333 57.916 244.087 58.3203C243.847 58.7246 243.727 59.4219 243.727 60.4121C243.727 61.2852 243.873 61.9414 244.166 62.3809C244.459 62.8203 244.925 63.04 245.563 63.04Z" fill="#333F48"/>
<path d="M240 66.8018H251.681V67.6982H240V66.8018Z" fill="#333F48"/>
<path d="M72.34 55.586H74.636V57.756C74.09 57.07 73.334 56.454 72.116 56.454C70.352 56.454 68.686 57.826 68.686 60.29V60.318C68.686 62.782 70.38 64.154 72.116 64.154C73.306 64.154 74.09 63.538 74.636 62.768V64H76.33V55.586H77.296V54.564H76.33V53.78H74.636V54.564H72.34V55.586ZM72.522 62.684C71.36 62.684 70.394 61.746 70.394 60.318V60.29C70.394 58.82 71.36 57.924 72.522 57.924C73.656 57.924 74.664 58.862 74.664 60.29V60.318C74.664 61.732 73.656 62.684 72.522 62.684ZM81.9706 64.168C84.2526 64.168 85.9326 62.404 85.9326 60.318V60.29C85.9326 59.632 85.7646 59.03 85.4846 58.484C86.0586 58.19 86.3526 57.728 86.3666 57.112C86.3666 56.986 86.3666 56.552 86.1566 55.656H84.5326C84.8546 56.216 84.9106 56.664 84.9106 56.874C84.9106 57.042 84.7566 57.182 84.4626 57.28C83.7906 56.762 82.9506 56.454 81.9986 56.454C79.7306 56.454 78.0506 58.204 78.0506 60.318V60.346C78.0506 62.446 79.7166 64.168 81.9706 64.168ZM81.9986 62.698C80.6966 62.698 79.7446 61.606 79.7446 60.318V60.29C79.7446 59.002 80.6126 57.938 81.9706 57.938C83.3006 57.938 84.2386 59.016 84.2386 60.318V60.346C84.2386 61.62 83.3846 62.698 81.9986 62.698ZM87.6578 64H89.3518V59.828C89.3518 58.666 90.0238 57.994 91.0178 57.994C92.0258 57.994 92.5998 58.638 92.5998 59.8V64H94.2938V59.296C94.2938 57.56 93.3418 56.454 91.6618 56.454C90.5138 56.454 89.8278 57.056 89.3518 57.756V56.608H87.6578V64ZM100.537 64H102.231V59.828C102.231 58.666 102.903 57.994 103.897 57.994C104.905 57.994 105.479 58.638 105.479 59.8V64H107.173V59.296C107.173 57.56 106.221 56.454 104.541 56.454C103.393 56.454 102.707 57.056 102.231 57.756V53.78H100.537V64ZM115.42 64V59.618C115.42 57.644 114.37 56.496 112.172 56.496C110.954 56.496 110.184 56.734 109.358 57.112L109.82 58.47C110.492 58.19 111.094 58.008 111.934 58.008C113.11 58.008 113.754 58.568 113.754 59.59V59.73C113.18 59.548 112.606 59.422 111.71 59.422C109.974 59.422 108.714 60.206 108.714 61.844V61.872C108.714 63.37 109.946 64.154 111.346 64.154C112.466 64.154 113.236 63.692 113.74 63.09V64H115.42ZM113.782 61.326C113.782 62.264 112.942 62.88 111.822 62.88C111.024 62.88 110.394 62.502 110.394 61.788V61.76C110.394 61.046 111.024 60.612 112.088 60.612C112.746 60.612 113.348 60.738 113.782 60.906V61.326ZM112.242 55.67H113.516L112.06 53.374L110.52 54.06L112.242 55.67ZM117.435 64H119.129V59.828C119.129 58.666 119.801 57.994 120.795 57.994C121.803 57.994 122.377 58.638 122.377 59.8V64H124.071V59.296C124.071 57.56 123.119 56.454 121.439 56.454C120.291 56.454 119.605 57.056 119.129 57.756V56.608H117.435V64ZM129.407 66.268C130.751 66.268 131.773 65.946 132.445 65.274C133.075 64.644 133.383 63.72 133.383 62.488V56.608H131.689V57.714C131.115 57.028 130.345 56.454 129.099 56.454C127.363 56.454 125.739 57.742 125.739 59.926V59.954C125.739 62.124 127.363 63.412 129.099 63.412C130.317 63.412 131.087 62.852 131.703 62.054V62.628C131.703 64.126 130.877 64.896 129.365 64.896C128.357 64.896 127.517 64.602 126.733 64.112L126.103 65.386C127.069 65.974 128.175 66.268 129.407 66.268ZM129.547 61.984C128.385 61.984 127.447 61.158 127.447 59.94V59.912C127.447 58.694 128.371 57.882 129.547 57.882C130.723 57.882 131.717 58.708 131.717 59.926V59.954C131.717 61.144 130.723 61.984 129.547 61.984ZM142.171 64.126C142.801 64.126 143.263 63.986 143.697 63.748V62.362C143.361 62.53 143.011 62.614 142.647 62.614C142.073 62.614 141.737 62.348 141.737 61.69V58.064H143.725V56.608H141.737V54.578H140.043V56.608H139.105V58.064H140.043V61.956C140.043 63.58 140.925 64.126 142.171 64.126ZM147.983 64.154C149.117 64.154 149.803 63.566 150.293 62.852V64H151.987V58.064C153.023 57.854 153.555 57.308 153.569 56.454C153.569 56.328 153.569 55.894 153.359 54.998H151.735C152.057 55.558 152.113 56.006 152.113 56.216C152.113 56.398 151.973 56.524 151.679 56.608H150.293V60.78C150.293 61.942 149.621 62.614 148.627 62.614C147.619 62.614 147.045 61.97 147.045 60.808V56.608H145.351V61.312C145.351 63.048 146.303 64.154 147.983 64.154ZM148.263 55.67H149.537L148.081 53.374L146.541 54.06L148.263 55.67Z" fill="#333F48"/>
<defs>
<linearGradient id="paint0_linear_7152_59888" x1="585.116" y1="59.2343" x2="591.863" y2="59.2343" gradientUnits="userSpaceOnUse">
<stop stop-color="#007940"/>
<stop offset="0.2285" stop-color="#00873F"/>
<stop offset="0.7433" stop-color="#40A737"/>
<stop offset="1" stop-color="#5CB531"/>
</linearGradient>
<linearGradient id="paint1_linear_7152_59888" x1="585.116" y1="58.1826" x2="591.863" y2="58.1826" gradientUnits="userSpaceOnUse">
<stop stop-color="#007940"/>
<stop offset="0.2285" stop-color="#00873F"/>
<stop offset="0.7433" stop-color="#40A737"/>
<stop offset="1" stop-color="#5CB531"/>
</linearGradient>
<linearGradient id="paint2_linear_7152_59888" x1="585.116" y1="57.0372" x2="591.863" y2="57.0372" gradientUnits="userSpaceOnUse">
<stop stop-color="#007940"/>
<stop offset="0.2285" stop-color="#00873F"/>
<stop offset="0.7433" stop-color="#40A737"/>
<stop offset="1" stop-color="#5CB531"/>
</linearGradient>
<linearGradient id="paint3_linear_7152_59888" x1="570.012" y1="58.1826" x2="576.863" y2="58.1826" gradientUnits="userSpaceOnUse">
<stop stop-color="#1F286F"/>
<stop offset="0.4751" stop-color="#004E94"/>
<stop offset="0.8261" stop-color="#0066B1"/>
<stop offset="1" stop-color="#006FBC"/>
</linearGradient>
<linearGradient id="paint4_linear_7152_59888" x1="577.527" y1="58.1826" x2="584.181" y2="58.1826" gradientUnits="userSpaceOnUse">
<stop stop-color="#6C2C2F"/>
<stop offset="0.1735" stop-color="#882730"/>
<stop offset="0.5731" stop-color="#BE1833"/>
<stop offset="0.8585" stop-color="#DC0436"/>
<stop offset="1" stop-color="#E60039"/>
</linearGradient>
</defs>
</svg>
